<?xml version="1.0" standalone="no"?>
<!DOCTYPE svg PUBLIC "-//W3C//DTD SVG 20010904//EN"
 "http://www.w3.org/TR/2001/REC-SVG-20010904/DTD/svg10.dtd">
<svg version="1.0" xmlns="http://www.w3.org/2000/svg"
 width="1024.000000pt" height="1024.000000pt" viewBox="0 0 1024.000000 1024.000000"
 preserveAspectRatio="xMidYMid meet">
<metadata>
Created by potrace 1.14, written by Peter Selinger 2001-2017
</metadata>
<g transform="translate(0.000000,1024.000000) scale(0.100000,-0.100000)"
fill="#000000" stroke="none">
<path d="M4078 8631 c-31 -10 -76 -30 -100 -44 -64 -37 -145 -128 -179 -202
-29 -62 -31 -70 -27 -173 3 -102 5 -113 41 -184 69 -140 207 -237 352 -246
175 -11 339 89 418 255 30 64 32 74 32 183 0 103 -3 121 -26 170 -39 80 -80
132 -147 184 -96 73 -241 96 -364 57z m264 -93 c117 -54 188 -162 196 -298 3
-60 0 -87 -18 -132 -13 -35 -27 -58 -36 -58 -9 0 -14 -7 -12 -17 2 -10 -3 -17
-9 -15 -7 1 -13 -3 -13 -9 0 -13 -51 -55 -62 -51 -5 1 -8 -4 -8 -12 0 -7 -8
-16 -17 -19 -10 -4 -43 -15 -73 -27 -77 -28 -146 -26 -217 7 l-58 27 37 4 c20
2 46 -2 57 -7 11 -6 29 -11 40 -11 20 0 21 5 21 108 -1 106 -1 107 -18 76 -9
-17 -39 -58 -67 -92 -39 -47 -55 -59 -70 -55 -44 12 -39 24 50 113 49 50 84
90 78 90 -6 0 -58 -16 -114 -35 -57 -19 -104 -35 -106 -35 -1 0 -3 -12 -5 -27
l-3 -28 -22 24 c-65 70 -48 280 31 384 34 45 114 97 175 114 70 20 176 11 243
-19z"/>
<path d="M4082 8497 l-43 -23 61 -79 c33 -44 60 -83 60 -87 0 -5 3 -8 8 -8 4
0 6 49 4 110 -3 106 -4 110 -25 110 -12 -1 -41 -11 -65 -23z"/>
<path d="M4225 8419 c-4 -55 -6 -102 -3 -104 6 -6 113 135 116 154 2 13 -8 23
-38 35 -67 27 -67 27 -75 -85z"/>
<path d="M3951 8384 c-19 -25 -30 -48 -25 -53 5 -4 34 -15 64 -24 30 -8 76
-22 103 -30 26 -8 47 -13 47 -11 0 6 -141 158 -149 161 -3 1 -21 -18 -40 -43z"/>
<path d="M4321 8349 c-40 -44 -71 -82 -69 -84 2 -3 26 4 54 14 27 11 70 22 96
26 58 9 74 25 57 57 -13 26 -49 68 -58 68 -3 0 -39 -36 -80 -81z"/>
<path d="M3899 8239 c-6 -12 -8 -36 -4 -55 7 -38 -7 -38 140 -2 123 30 122 35
-13 63 -96 20 -109 19 -123 -6z"/>
<path d="M4356 8245 c-66 -14 -96 -28 -84 -40 10 -11 199 -47 214 -41 11 4 14
17 12 48 -3 41 -4 43 -38 45 -19 1 -66 -5 -104 -12z"/>
<path d="M4261 8153 c39 -49 133 -158 140 -161 11 -5 70 71 67 86 -2 10 -194
92 -216 92 -2 0 2 -8 9 -17z"/>
<path d="M4220 8095 c0 -27 3 -80 7 -117 5 -58 9 -68 25 -68 20 0 98 37 98 46
0 3 -20 30 -45 59 -25 29 -54 70 -65 92 l-19 38 -1 -50z"/>
<path d="M5885 8486 c-27 -12 -65 -35 -83 -51 -42 -35 -82 -113 -89 -173 -5
-49 17 -155 25 -117 7 34 43 55 95 55 43 0 47 -2 47 -25 0 -20 -10 -30 -50
-50 -27 -14 -56 -25 -65 -25 -22 0 -19 -11 15 -52 44 -54 139 -98 210 -98 161
0 293 126 293 280 1 199 -219 340 -398 256z m219 -12 c22 -9 20 -62 -4 -101
-20 -33 -34 -39 -64 -27 -26 10 -21 76 9 108 25 27 33 30 59 20z m-148 -29 c9
-13 17 -39 18 -56 1 -27 -4 -33 -27 -42 -37 -12 -55 5 -68 62 -11 51 -6 61 31
61 20 0 35 -8 46 -25z m-115 -111 c66 -33 58 -74 -15 -74 -50 0 -86 23 -86 54
0 46 36 53 101 20z m399 6 c11 -11 20 -24 20 -28 0 -17 -36 -39 -83 -52 -41
-11 -50 -11 -58 1 -21 33 -1 67 51 88 37 14 48 13 70 -9z m-188 -57 c25 -29
29 -53 13 -82 -16 -32 -33 -41 -75 -41 -31 0 -70 39 -70 70 0 10 9 29 21 44
25 32 87 37 111 9z m143 -84 c47 -12 62 -33 50 -69 -8 -26 -46 -26 -102 0 -48
21 -50 26 -27 58 18 25 20 26 79 11z m-74 -190 c-21 -22 -52 -19 -76 7 -34 37
-33 79 3 98 l27 15 26 -57 c15 -31 24 -60 20 -63z m-161 93 c22 -18 22 -19 6
-50 -9 -17 -24 -36 -35 -41 -21 -12 -61 -11 -61 1 0 16 50 108 59 108 5 0 19
-8 31 -18z"/>
<path d="M4796 8478 c-23 -32 -20 -55 9 -74 55 -36 106 35 57 79 -25 23 -48
21 -66 -5z"/>
<path d="M5336 8484 c-19 -18 -21 -55 -4 -72 7 -7 24 -12 38 -12 51 0 69 55
28 84 -28 20 -43 20 -62 0z"/>
<path d="M5635 8250 c-5 -18 -20 -40 -32 -48 -21 -13 -24 -13 -33 9 -13 32 -3
-72 12 -121 68 -226 299 -354 531 -294 87 22 133 49 197 113 85 85 132 202
129 324 -1 29 -3 41 -6 27 -14 -94 -13 -91 -41 -88 -24 3 -28 8 -33 48 -4 33
-6 37 -8 15 -9 -171 -114 -302 -274 -341 -59 -15 -78 -15 -135 -5 -167 31
-274 149 -290 319 -7 71 -8 73 -17 42z"/>
<path d="M2943 8247 c-64 -71 -133 -202 -169 -324 -23 -74 -27 -108 -28 -214
l-1 -127 -40 28 c-103 70 -245 123 -395 145 -160 25 -330 16 -352 -17 -10 -15
-2 -115 18 -211 54 -264 256 -484 532 -580 77 -27 100 -30 204 -31 l116 0 -79
-84 c-224 -236 -319 -498 -319 -876 0 -180 16 -302 57 -451 l28 -100 172 0
c186 -1 182 -2 143 55 -24 35 -83 163 -109 235 -37 103 -66 271 -66 381 0 56
-3 100 -7 97 -5 -2 -8 2 -8 11 0 8 6 17 13 19 7 3 8 6 1 6 -7 1 -10 14 -7 34
3 17 5 39 5 47 1 8 6 21 12 29 8 11 8 15 -1 18 -13 5 -6 33 9 33 5 0 6 -5 2
-12 -5 -7 -3 -8 5 -3 7 4 11 16 8 26 -3 11 -1 19 5 19 5 0 7 4 4 9 -3 5 1 14
9 21 8 7 12 16 9 21 -9 15 34 67 59 72 19 4 18 4 -5 6 -32 1 -32 1 -16 36 8
18 14 22 20 13 5 -9 8 -4 8 14 0 15 5 30 11 34 9 5 10 -1 5 -20 -4 -15 -2 -26
4 -26 10 0 14 14 11 38 -1 6 3 12 8 12 12 0 33 69 24 83 -3 6 -1 7 5 3 7 -4
14 3 18 19 9 38 19 31 38 -32 29 -93 96 -211 155 -276 132 -142 337 -268 525
-322 113 -32 152 -33 160 -2 12 45 5 193 -14 262 -10 39 -17 71 -15 73 1 1 36
-6 76 -17 142 -39 340 -44 484 -11 174 38 410 188 391 248 -4 11 -41 52 -82
92 -236 224 -613 374 -973 386 -75 2 -140 4 -146 5 -5 0 28 11 74 25 132 39
215 87 301 173 77 78 127 162 152 256 20 74 11 80 -113 79 -272 -2 -476 -99
-648 -308 -30 -36 -56 -65 -57 -63 -1 1 9 45 23 97 56 219 19 491 -94 689 -42
73 -111 168 -127 174 -7 3 -23 -4 -33 -16z m46 -269 c31 -73 60 -199 71 -310
7 -59 10 -113 8 -119 -7 -20 -67 50 -100 117 -17 35 -38 64 -45 64 -8 0 -13
-6 -12 -12 1 -7 -1 -20 -4 -28 -3 -8 -8 -24 -11 -35 -3 -11 -3 34 -1 100 2 66
11 140 19 165 37 116 47 123 75 58z m-658 -369 c124 -25 238 -72 347 -142 123
-80 202 -175 278 -334 39 -82 44 -104 12 -53 -43 69 -155 196 -175 197 -17 1
-64 27 -108 60 -6 5 -17 9 -25 11 -8 2 -18 10 -23 17 -4 8 -14 12 -22 9 -8 -4
-15 -1 -15 5 0 6 -7 8 -17 4 -12 -5 -14 -3 -8 7 5 8 4 11 -3 6 -6 -4 -27 0
-47 8 -37 16 -47 27 -17 19 12 -3 19 1 19 11 0 11 -9 14 -34 10 -24 -3 -33 0
-33 11 0 8 -3 14 -7 14 -23 -4 -74 16 -94 37 -16 17 -29 22 -46 18 -14 -4 -23
-2 -23 5 0 6 8 11 18 12 22 1 -51 29 -103 39 -24 5 -47 4 -59 -2 -13 -7 -16
-7 -12 1 4 7 -1 11 -12 11 -21 0 -36 23 -24 35 9 9 162 -1 233 -16z m1480 -76
c-11 -23 -127 -134 -162 -156 -30 -20 -111 -31 -148 -21 l-26 7 25 7 25 8 -25
1 c-15 1 -32 -5 -39 -11 -11 -10 -12 -10 -7 -1 5 9 2 11 -8 7 -9 -3 -13 -10
-10 -15 3 -5 -2 -9 -11 -9 -9 0 -14 4 -10 10 12 19 -60 -14 -123 -57 -71 -49
-78 -45 -17 9 114 101 282 184 445 219 107 22 102 22 91 2z m-851 -43 c0 -5
-7 -7 -15 -4 -8 4 -15 8 -15 10 0 2 7 4 15 4 8 0 15 -4 15 -10z m10 -52 c0
-18 -2 -20 -9 -8 -6 8 -7 18 -5 22 9 14 14 9 14 -14z m545 -118 c-3 -5 -14
-10 -23 -9 -14 0 -13 2 3 9 27 11 27 11 20 0z m-694 -67 c13 -16 12 -17 -3 -4
-10 7 -18 15 -18 17 0 8 8 3 21 -13z m105 -210 c-2 -2 -25 2 -51 8 -41 10 -45
14 -32 24 13 9 14 14 4 24 -7 7 9 -2 35 -20 26 -18 46 -34 44 -36z m548 -3
c322 -31 663 -141 850 -274 89 -63 146 -113 139 -120 -14 -13 -36 -4 -125 55
-51 34 -130 79 -176 101 -71 34 -85 38 -95 25 -7 -8 -19 -17 -28 -20 -13 -4
-15 -1 -11 15 4 15 7 17 13 6 7 -10 9 -9 9 4 0 23 -18 32 -35 18 -10 -8 -15
-8 -21 1 -5 8 -3 10 7 4 10 -5 11 -5 4 3 -5 6 -23 12 -40 13 -16 2 -35 7 -41
11 -6 5 -19 6 -28 2 -18 -7 -22 -34 -5 -34 5 0 8 4 5 9 -3 5 1 11 9 15 11 4
15 -2 15 -24 0 -33 -16 -49 -24 -23 -3 10 -4 3 -2 -14 3 -37 -8 -43 -26 -13
-7 11 -17 20 -21 20 -5 0 -17 10 -27 23 -10 12 -51 37 -91 56 -41 18 -87 40
-102 48 -15 8 -34 12 -42 9 -7 -2 -15 0 -17 6 -3 7 -19 13 -37 14 -18 1 -44 7
-59 12 -31 12 -86 20 -187 28 -98 8 -112 17 -35 24 106 10 111 10 224 0z
m-117 -46 c-3 -3 -12 -4 -19 -1 -8 3 -5 6 6 6 11 1 17 -2 13 -5z m-295 -63
c131 -38 284 -134 363 -228 78 -93 156 -252 169 -343 6 -42 5 -44 -9 -25 -8
11 -26 34 -40 50 -48 59 -135 171 -182 234 -26 35 -66 87 -88 114 -44 55 -154
133 -225 160 -25 10 -56 26 -70 37 -23 18 -23 20 -5 20 11 0 50 -9 87 -19z
m641 -35 c3 -8 0 -19 -7 -25 -10 -9 -12 -6 -8 14 5 29 8 31 15 11z m239 -58
c-7 -7 -12 -8 -12 -2 0 14 12 26 19 19 2 -3 -1 -11 -7 -17z m38 -3 c14 -19 14
-19 -2 -6 -10 7 -18 18 -18 24 0 6 1 8 3 6 1 -2 9 -13 17 -24z m-931 6 c9 -6
10 -11 2 -15 -13 -8 -31 1 -31 15 0 11 11 11 29 0z m661 -1 c0 -5 -5 -10 -11
-10 -5 0 -7 5 -4 10 3 6 8 10 11 10 2 0 4 -4 4 -10z m-50 -10 c0 -5 -2 -10 -4
-10 -3 0 -8 5 -11 10 -3 6 -1 10 4 10 6 0 11 -4 11 -10z m23 -35 c-3 -9 -8
-14 -10 -11 -3 3 -2 9 2 15 9 16 15 13 8 -4z m387 1 c0 -3 -4 -8 -10 -11 -5
-3 -10 -1 -10 4 0 6 5 11 10 11 6 0 10 -2 10 -4z m-80 -26 c0 -5 -5 -10 -11
-10 -5 0 -7 5 -4 10 3 6 8 10 11 10 2 0 4 -4 4 -10z m-880 -51 c0 -6 -9 0 -20
14 -11 14 -20 29 -20 33 0 4 9 -2 20 -14 11 -12 20 -26 20 -33z m1015 41 c3
-5 2 -10 -4 -10 -5 0 -13 5 -16 10 -3 6 -2 10 4 10 5 0 13 -4 16 -10z m0 -70
c3 -5 1 -10 -4 -10 -6 0 -11 5 -11 10 0 6 2 10 4 10 3 0 8 -4 11 -10z m-1311
-34 c-5 -14 -9 -15 -15 -5 -5 8 -3 17 4 21 15 9 19 4 11 -16z m1320 -14 c3 -5
-1 -9 -9 -9 -8 0 -12 4 -9 9 3 4 7 8 9 8 2 0 6 -4 9 -8z m-1411 -97 c-3 -9 -8
-14 -10 -11 -3 3 -2 9 2 15 9 16 15 13 8 -4z"/>
<path d="M2410 7503 c0 -12 3 -13 13 -4 8 6 16 10 18 8 2 -1 3 0 1 2 -7 12
-32 7 -32 -6z"/>
<path d="M3586 7381 c-4 -5 -2 -12 3 -15 5 -4 12 -2 15 3 4 5 2 12 -3 15 -5 4
-12 2 -15 -3z"/>
<path d="M3860 6922 c0 -12 19 -26 26 -19 2 2 -2 10 -11 17 -9 8 -15 8 -15 2z"/>
<path d="M7195 8203 c-63 -79 -140 -239 -167 -348 -18 -73 -22 -119 -22 -240
-1 -142 9 -207 41 -292 4 -10 -35 26 -87 81 -185 193 -332 261 -593 273 -148
7 -157 2 -137 -75 60 -223 232 -380 490 -449 28 -7 9 -11 -105 -16 -301 -15
-586 -106 -822 -263 -112 -74 -236 -195 -231 -226 4 -30 121 -127 206 -171 37
-19 98 -44 135 -56 151 -46 397 -45 539 3 40 13 68 18 68 12 -1 -6 -7 -38 -15
-71 -8 -33 -15 -108 -15 -167 0 -106 0 -108 24 -114 35 -8 209 37 299 79 251
116 429 293 505 501 22 61 31 73 41 63 6 -6 15 -12 19 -13 23 -3 42 -19 42
-35 0 -10 5 -16 13 -14 12 5 47 -46 47 -70 0 -7 6 -18 14 -24 13 -11 13 -17 0
-47 -14 -34 -8 -44 14 -22 6 6 15 8 19 3 5 -4 2 -10 -5 -12 -6 -3 -10 -9 -6
-14 3 -5 0 -9 -5 -9 -6 0 -11 -5 -11 -11 0 -6 7 -9 15 -6 8 4 17 2 20 -3 4 -6
-2 -10 -12 -10 -13 0 -15 -3 -5 -8 7 -5 10 -16 6 -25 -4 -12 -1 -17 10 -17 14
0 15 -4 6 -21 -9 -16 -8 -28 4 -54 9 -18 16 -42 16 -54 0 -12 4 -21 9 -21 4 0
7 -78 7 -172 -2 -145 -6 -187 -25 -262 -26 -100 -73 -217 -132 -323 -21 -40
-39 -75 -39 -78 0 -3 76 -5 170 -5 l169 0 20 68 c65 220 89 521 57 720 -43
271 -182 545 -347 684 l-51 43 133 6 c117 5 145 10 218 38 227 84 394 247 475
462 33 88 58 215 54 275 -4 71 -19 76 -193 70 -230 -8 -384 -52 -561 -160
l-41 -25 5 104 c4 84 0 123 -17 199 -34 146 -157 375 -203 376 -9 0 -37 -26
-63 -57z m109 -283 c9 -38 16 -86 16 -107 0 -42 -52 -152 -114 -243 -24 -35
-33 -56 -26 -60 8 -5 6 -9 -4 -13 -14 -6 -16 8 -12 131 4 141 14 193 63 331
26 74 26 74 44 52 10 -12 25 -53 33 -91z m824 -307 c-2 -12 -16 -20 -38 -24
-25 -5 -28 -7 -11 -8 56 -3 5 -13 -79 -16 -50 -2 -94 -6 -97 -9 -4 -3 2 -6 12
-6 14 0 16 -3 7 -12 -8 -8 -15 -8 -27 2 -14 11 -19 7 -16 -12 0 -5 -8 -8 -18
-8 -13 0 -18 -6 -16 -17 2 -10 4 -22 4 -27 1 -4 8 -5 17 -2 14 5 15 4 5 -8
-11 -13 -58 -30 -86 -31 -5 0 -13 -4 -16 -8 -3 -4 -18 -9 -33 -11 -15 -1 -32
-8 -38 -14 -7 -7 -18 -12 -26 -12 -21 0 -198 -97 -257 -140 -63 -46 -118 -107
-144 -159 -24 -47 -47 -66 -36 -30 46 150 162 305 295 396 145 99 364 167 548
172 46 1 53 -1 50 -16z m-1558 -99 c151 -41 322 -136 404 -223 43 -45 15 -38
-41 11 -26 22 -70 52 -98 64 -51 24 -74 23 -41 -2 34 -25 8 -28 -50 -5 -57 21
-89 27 -81 14 3 -5 -2 -15 -11 -23 -14 -13 -15 -12 -9 3 4 11 1 17 -9 17 -8 0
-12 -4 -9 -10 7 -12 -8 -14 -19 -2 -4 4 -11 7 -15 7 -3 0 -13 5 -21 12 -60 48
-105 91 -131 124 l-31 39 34 0 c18 0 76 -12 128 -26z m1508 -4 c-7 -11 -14
-16 -16 -10 -2 6 -8 8 -13 4 -5 -3 -9 -3 -9 1 0 4 31 20 48 24 1 1 -3 -8 -10
-19z m-88 -110 c8 -5 11 -10 5 -10 -5 0 -17 5 -25 10 -8 5 -10 10 -5 10 6 0
17 -5 25 -10z m-65 -28 c-3 -3 -11 0 -18 7 -9 10 -8 11 6 5 10 -3 15 -9 12
-12z m-168 -34 c2 -17 0 -19 -7 -8 -5 8 -6 18 -4 22 8 12 10 10 11 -14z m-56
-65 c8 -10 9 -14 2 -10 -6 4 -14 3 -18 -3 -3 -5 -1 -10 5 -10 6 0 8 -5 4 -11
-4 -7 -9 -8 -17 0 -7 7 -7 14 1 24 7 8 9 17 5 20 -3 4 -4 7 -1 7 3 0 12 -8 19
-17z m68 1 c3 -4 -2 -4 -11 -1 -10 4 -18 0 -20 -9 -2 -11 -6 -10 -16 6 -12 19
-11 20 14 16 15 -3 29 -8 33 -12z m62 -7 c-10 -9 -11 -8 -5 6 3 10 9 15 12 12
3 -3 0 -11 -7 -18z m-201 4 c0 -5 -7 -12 -16 -15 -14 -5 -15 -4 -4 9 14 17 20
19 20 6z m28 -22 c-2 -6 -6 -9 -8 -8 -3 1 -16 -3 -30 -10 -23 -11 -24 -11 -6
3 10 9 23 13 27 10 5 -3 9 0 9 5 0 6 3 11 6 11 3 0 4 -5 2 -11z m155 -22 c-3
-4 -6 -7 -7 -5 -1 2 -8 12 -16 22 -14 18 -14 18 7 6 12 -8 19 -18 16 -23z
m-283 -48 c0 -11 -27 -12 -34 0 -3 4 -3 11 0 14 8 8 34 -3 34 -14z m-540 -138
c66 -7 66 -12 -5 -29 -22 -5 -49 -13 -60 -17 -16 -5 -17 -5 -5 4 18 12 9 24
-13 15 -9 -3 -14 -13 -11 -22 5 -14 4 -14 -6 1 -6 9 -15 15 -19 13 -4 -3 -24
-6 -44 -8 -21 -1 -37 -6 -37 -11 0 -5 -6 -7 -14 -4 -8 3 -17 -1 -20 -9 -4 -10
-2 -13 7 -8 7 4 9 3 4 -2 -13 -14 -57 -12 -57 3 0 19 -55 -10 -64 -33 -5 -12
-10 -14 -17 -7 -8 8 -20 8 -43 1 -42 -14 -56 -28 -28 -28 12 0 22 -4 22 -10 0
-13 -33 -13 -47 1 -8 8 -19 6 -42 -5 -34 -18 -37 -26 -19 -44 9 -9 9 -12 0
-12 -7 0 -12 5 -12 10 0 21 -58 6 -69 -17 -6 -13 -15 -23 -21 -23 -5 0 -10 -4
-10 -10 0 -15 16 -12 34 5 8 8 22 12 30 9 9 -3 16 -1 16 5 0 6 5 11 11 11 8 0
9 -4 0 -13 -6 -8 -7 -17 -3 -22 4 -4 -2 -5 -14 -1 -11 3 -37 0 -57 -9 -25 -10
-43 -12 -59 -6 l-23 10 25 1 c18 0 21 3 11 9 -8 5 -9 11 -3 15 6 3 10 20 10
36 -1 17 6 38 15 48 16 17 23 42 12 42 -12 0 -263 -104 -318 -131 -34 -17
-108 -60 -164 -95 -56 -35 -107 -64 -112 -64 -64 0 149 156 321 234 262 121
652 193 898 167z m260 -95 c0 -2 -12 -24 -26 -50 -23 -40 -28 -45 -42 -34 -13
11 -15 10 -9 -5 6 -16 5 -16 -19 0 -15 9 -29 12 -32 7 -4 -5 -13 -10 -21 -12
-13 -3 -52 -28 -89 -57 -7 -5 -27 -23 -44 -40 -27 -27 -39 -46 -80 -125 -7
-14 -15 -27 -18 -30 -3 -3 -30 -36 -60 -75 -30 -38 -75 -92 -98 -120 -24 -27
-53 -67 -64 -88 -10 -22 -21 -37 -23 -35 -2 2 7 53 21 113 18 81 36 130 67
184 54 96 171 216 263 270 90 53 274 118 274 97z m-520 -26 c0 -5 -5 -10 -11
-10 -5 0 -7 5 -4 10 3 6 8 10 11 10 2 0 4 -4 4 -10z m-119 -13 c-1 -12 -15 -9
-19 4 -3 6 1 10 8 8 6 -3 11 -8 11 -12z m56 -9 c-3 -8 -6 -5 -6 6 -1 11 2 17
5 13 3 -3 4 -12 1 -19z m-317 4 c0 -26 -52 -43 -66 -21 -4 8 0 9 15 4 12 -3
21 -3 20 2 -3 17 1 23 16 23 8 0 15 -4 15 -8z m294 -18 c3 -8 2 -12 -4 -9 -6
3 -10 10 -10 16 0 14 7 11 14 -7z m-131 -14 c-5 -20 -33 -29 -33 -10 0 7 25
27 37 30 0 0 -1 -9 -4 -20z m-243 0 c0 -5 -5 -10 -11 -10 -5 0 -7 5 -4 10 3 6
8 10 11 10 2 0 4 -4 4 -10z m281 -17 c0 -16 1 -16 7 -2 6 14 9 15 19 4 22 -24
-18 -29 -41 -5 -18 18 -18 20 -3 20 9 0 17 -8 18 -17z m-300 -45 c-11 -11 -13
-10 -8 3 3 9 1 22 -4 28 -5 6 -1 4 8 -4 14 -12 15 -17 4 -27z m283 11 c-6 -11
-24 -2 -24 11 0 5 7 7 15 4 8 -4 12 -10 9 -15z m101 11 c3 -5 1 -10 -4 -10 -6
0 -11 5 -11 10 0 6 2 10 4 10 3 0 8 -4 11 -10z m-138 -16 c-3 -3 -12 -4 -19
-1 -8 3 -5 6 6 6 11 1 17 -2 13 -5z m-319 -18 c-7 -8 -15 -12 -17 -11 -5 6 10
25 20 25 5 0 4 -6 -3 -14z m472 4 c0 -5 -2 -10 -4 -10 -3 0 -8 5 -11 10 -3 6
-1 10 4 10 6 0 11 -4 11 -10z m-90 -10 c0 -5 -4 -10 -10 -10 -5 0 -10 5 -10
10 0 6 5 10 10 10 6 0 10 -4 10 -10z m25 0 c3 -5 1 -10 -4 -10 -6 0 -11 5 -11
10 0 6 2 10 4 10 3 0 8 -4 11 -10z m-355 -10 c-8 -5 -19 -10 -25 -10 -5 0 -3
5 5 10 8 5 20 10 25 10 6 0 3 -5 -5 -10z m260 -13 c0 -7 -4 -6 -10 3 -6 10
-10 11 -10 3 0 -7 -5 -13 -11 -13 -8 0 -8 5 1 15 13 16 30 11 30 -8z m130 13
c0 -5 -5 -10 -11 -10 -5 0 -7 5 -4 10 3 6 8 10 11 10 2 0 4 -4 4 -10z m-515
-20 c-3 -5 -13 -10 -21 -10 -8 0 -12 -4 -9 -10 3 -5 4 -10 1 -10 -17 0 -13 22
6 29 30 13 30 13 23 1z m83 -3 c8 -10 6 -13 -7 -13 -11 0 -17 6 -14 13 3 7 6
13 8 13 1 0 7 -6 13 -13z m76 -2 c11 -8 16 -15 10 -15 -5 0 -18 7 -28 15 -11
8 -16 15 -10 15 5 0 18 -7 28 -15z m166 11 c0 -3 -4 -8 -10 -11 -5 -3 -10 -1
-10 4 0 6 5 11 10 11 6 0 10 -2 10 -4z m-120 -53 c-11 -17 -11 -17 -6 0 3 10
7 26 7 35 1 15 2 15 6 0 2 -10 -1 -25 -7 -35z m136 5 c6 -4 20 -6 30 -2 18 5
18 5 1 -6 -9 -6 -23 -8 -30 -3 -20 13 -47 14 -47 1 0 -6 -2 -9 -5 -6 -3 3 -3
12 1 21 6 16 26 14 50 -5z m-234 -38 c-2 -8 3 -10 13 -7 8 4 15 2 15 -3 0 -13
-13 -13 -45 2 -18 8 -22 14 -13 20 17 10 34 4 30 -12z m1378 -380 c0 -5 -2
-10 -4 -10 -3 0 -8 5 -11 10 -3 6 -1 10 4 10 6 0 11 -4 11 -10z"/>
<path d="M7794 7505 c-12 -9 -14 -14 -6 -15 7 0 20 7 28 15 20 19 4 20 -22 0z"/>
<path d="M7805 7470 c-3 -5 -1 -10 4 -10 6 0 11 5 11 10 0 6 -2 10 -4 10 -3 0
-8 -4 -11 -10z"/>
<path d="M5006 8198 c-66 -23 -121 -71 -151 -133 -15 -31 -20 -61 -20 -130 0
-80 3 -95 27 -136 34 -57 94 -113 142 -130 l36 -13 0 -183 0 -183 65 0 65 0 0
185 c0 168 2 186 18 191 99 32 152 85 182 181 37 117 11 223 -75 302 -75 69
-179 87 -289 49z m137 -62 c49 -21 70 -50 71 -101 1 -25 5 -45 9 -45 5 0 5 -5
1 -11 -5 -8 -9 -8 -14 1 -6 10 -9 9 -15 0 -4 -7 -1 -16 6 -22 10 -7 8 -8 -8
-3 -12 3 -24 1 -28 -5 -4 -7 -32 -10 -70 -8 -35 2 -61 6 -59 9 2 4 -5 14 -16
24 -14 12 -20 31 -20 57 0 60 22 92 75 110 30 9 33 9 68 -6z m-133 -17 c0 -5
-4 -9 -10 -9 -5 0 -10 7 -10 16 0 8 5 12 10 9 6 -3 10 -10 10 -16z m-32 -58
c-7 -11 -16 -17 -20 -15 -4 3 -8 0 -8 -6 0 -6 -5 -8 -10 -5 -16 10 8 45 30 45
17 0 19 -3 8 -19z m4 -73 c-8 -8 -9 -4 -5 13 4 13 8 18 11 10 2 -7 -1 -18 -6
-23z"/>
<path d="M6758 7945 c-30 -28 -46 -35 -80 -36 -52 -2 -48 -2 -79 6 -35 9 -43
-13 -25 -66 14 -40 14 -40 -5 -23 -28 25 -23 3 6 -28 54 -58 148 -61 211 -6
28 25 34 36 29 55 -4 16 -2 22 5 18 6 -4 10 7 10 29 0 38 -15 86 -27 86 -5 0
-25 -16 -45 -35z m-5 -146 c-16 -16 -97 -23 -119 -11 -13 7 -6 9 28 5 25 -3
54 0 64 6 25 14 41 14 27 0z"/>
<path d="M3411 7961 c-22 -14 -27 -99 -7 -135 55 -100 207 -101 256 -1 11 23
20 50 20 61 -1 13 -6 7 -17 -16 -8 -20 -17 -29 -20 -22 -3 7 1 19 7 27 16 19
5 23 -88 27 -40 2 -76 8 -80 13 -21 29 -58 53 -71 46z"/>
<path d="M5624 7685 c-19 -48 39 -97 73 -62 20 20 10 35 -30 45 -18 5 -31 14
-29 21 3 16 -8 14 -14 -4z"/>
<path d="M4505 7669 c-9 -27 21 -59 55 -59 15 0 29 3 33 6 7 7 -22 39 -34 39
-5 0 -17 8 -28 17 -19 16 -20 16 -26 -3z"/>
<path d="M5284 7514 c-51 -25 -67 -80 -40 -132 23 -45 56 -57 112 -42 43 12
48 12 60 -5 18 -24 17 -43 -2 -80 -15 -29 -14 -30 23 -65 21 -19 45 -46 54
-59 l15 -24 28 36 c38 50 55 101 55 167 1 94 -50 170 -136 207 -43 17 -130 16
-169 -3z"/>
<path d="M5932 7470 c-129 -71 -189 -136 -178 -193 7 -37 42 -77 67 -77 48 0
99 83 99 162 0 13 16 49 35 81 19 31 33 57 32 57 -1 0 -26 -14 -55 -30z"/>
<path d="M6084 7426 c-55 -68 -65 -89 -66 -138 -1 -53 30 -83 77 -74 58 12 64
43 37 217 l-7 46 -41 -51z"/>
<path d="M4633 7374 c-4 -16 -8 -54 -7 -84 0 -68 28 -125 85 -173 l41 -36 -17
-52 c-42 -127 14 -260 155 -362 30 -22 57 -42 59 -43 2 -2 -11 -15 -28 -30
-42 -35 -115 -138 -137 -194 -27 -66 -25 -181 3 -243 28 -59 118 -155 197
-209 34 -22 63 -43 66 -45 2 -2 -12 -18 -31 -36 -49 -45 -89 -103 -101 -143
-13 -50 -31 -32 -26 27 3 27 2 49 -3 49 -16 0 -31 -75 -27 -143 5 -103 40
-167 153 -278 49 -49 94 -89 100 -89 5 0 24 11 40 24 l30 24 -111 109 c-129
126 -144 153 -120 217 24 61 76 124 142 171 31 22 79 57 106 78 49 38 49 39
31 59 -10 12 -63 54 -118 95 -126 95 -168 135 -190 183 -16 36 -16 39 5 80 34
67 112 137 265 240 77 52 162 116 188 142 96 96 132 229 88 330 -21 49 -63
103 -94 120 -21 11 -21 11 -4 -13 10 -13 29 -47 43 -76 23 -48 24 -57 16 -121
-7 -45 -19 -84 -37 -112 -60 -95 -261 -255 -300 -239 -15 6 -16 8 -4 8 9 1 20
8 23 17 4 10 13 13 26 9 11 -4 20 -2 20 4 0 6 -4 11 -10 11 -5 0 -10 7 -10 16
0 8 4 12 10 9 6 -3 7 1 4 9 -7 19 -20 21 -27 4 -4 -8 -6 -7 -6 4 -1 9 7 18 16
20 11 2 -7 18 -52 45 -149 88 -195 136 -195 200 0 59 6 63 81 63 l69 0 0 -83
c0 -92 4 -99 68 -132 57 -28 62 -19 62 104 l0 110 53 6 c70 9 85 18 67 40 -33
40 -71 49 -225 52 -188 4 -248 20 -315 80 -49 44 -90 115 -90 155 0 13 -4 30
-9 37 -8 12 -11 8 -18 -15z m467 -788 c0 -2 -8 -10 -17 -17 -16 -13 -17 -12
-4 4 13 16 21 21 21 13z"/>
<path d="M4381 7344 c0 -11 3 -14 6 -6 3 7 2 16 -1 19 -3 4 -6 -2 -5 -13z"/>
<path d="M4377 7298 c-4 -15 -17 -33 -29 -39 l-22 -12 19 29 19 29 -32 -27
c-58 -48 -171 -51 -211 -5 -13 15 -26 26 -28 23 -11 -10 19 -74 47 -101 37
-36 119 -46 168 -21 47 24 84 78 80 118 l-3 33 -8 -27z m-127 -82 c0 -2 -13
-6 -30 -8 -16 -3 -30 -1 -30 4 0 4 14 8 30 8 17 0 30 -2 30 -4z"/>
<path d="M7370 6701 c0 -5 5 -13 10 -16 6 -3 10 -2 10 4 0 5 -4 13 -10 16 -5
3 -10 2 -10 -4z"/>
<path d="M7436 6630 c7 -28 12 -35 18 -29 2 2 -2 15 -10 29 l-15 25 7 -25z"/>
<path d="M7410 6610 c0 -5 5 -10 11 -10 5 0 7 5 4 10 -3 6 -8 10 -11 10 -2 0
-4 -4 -4 -10z"/>
<path d="M7440 6550 c0 -11 4 -20 9 -20 5 0 7 9 4 20 -3 11 -7 20 -9 20 -2 0
-4 -9 -4 -20z"/>
<path d="M7445 6510 c4 -6 11 -8 16 -5 14 9 11 15 -7 15 -8 0 -12 -5 -9 -10z"/>
<path d="M5397 6435 c22 -138 -9 -240 -98 -331 l-51 -51 30 -21 29 -22 55 58
c67 70 92 135 91 237 -1 70 -16 122 -47 160 -16 19 -16 17 -9 -30z"/>
<path d="M5093 6429 l-53 -40 0 -99 0 -100 42 -30 c48 -35 56 -36 74 -12 19
24 20 322 2 322 -7 0 -37 -18 -65 -41z"/>
<path d="M2939 6247 c-63 -18 -137 -73 -176 -131 -29 -43 -33 -56 -33 -115 0
-76 18 -159 61 -286 44 -127 100 -244 138 -284 31 -33 32 -34 98 -28 36 4 68
9 72 12 3 3 0 15 -7 25 -7 11 -12 30 -12 42 1 19 4 17 21 -14 39 -75 -19 -70
831 -67 420 2 783 0 807 -5 42 -8 43 -8 36 15 -19 68 -69 151 -118 195 -62 56
-168 109 -248 125 l-58 11 51 75 c36 55 47 78 38 83 -20 12 -93 22 -99 13 -3
-5 -33 -17 -66 -27 -90 -27 -193 -77 -278 -135 -43 -28 -77 -48 -77 -43 0 16
77 97 119 126 34 24 42 36 51 83 7 31 9 74 6 97 -8 53 -47 133 -81 169 -28 29
-28 29 -47 9 -11 -11 -33 -52 -49 -91 -15 -38 -44 -93 -64 -122 -34 -49 -77
-171 -90 -254 -4 -22 -9 -47 -11 -55 -11 -31 -24 15 -24 83 0 61 -3 72 -30
106 -27 33 -95 81 -114 81 -4 0 -4 -19 -1 -42 3 -24 7 -79 8 -124 2 -71 5 -85
30 -117 36 -47 35 -65 -3 -34 -16 14 -38 28 -48 31 -13 4 -23 23 -31 59 -16
71 -62 148 -116 193 -38 32 -45 44 -45 74 0 86 -89 198 -196 247 -66 30 -177
39 -245 20z m196 -146 c43 -19 105 -82 105 -106 0 -11 -12 -15 -43 -15 -23 0
-67 -7 -97 -14 -48 -13 -56 -13 -66 0 -6 7 -20 14 -30 14 -17 0 -17 1 1 14 11
7 29 16 40 19 15 3 13 5 -9 6 -16 1 -40 -9 -57 -23 -41 -35 -117 -62 -137 -50
-9 6 -17 15 -19 21 -7 19 62 108 102 130 51 29 151 31 210 4z m1146 -264 l-24
-22 19 27 c10 14 21 24 23 22 3 -3 -6 -15 -18 -27z m-1008 -8 c58 -16 113 -76
126 -140 8 -36 8 -56 1 -63 -5 -5 -10 -20 -10 -33 0 -30 -59 -98 -73 -84 -6 6
-16 11 -21 11 -6 0 -4 -5 4 -10 13 -8 12 -10 -2 -10 -22 0 -24 18 -3 26 15 6
21 55 8 68 -4 4 -6 22 -5 41 3 27 -1 35 -20 41 -32 10 -75 6 -108 -11 -38 -19
-100 -97 -100 -124 0 -11 -4 -21 -10 -21 -5 0 -12 -11 -16 -25 -16 -63 -56 11
-57 105 -2 116 50 195 147 226 51 16 90 17 139 3z m1108 -229 c59 -19 117 -50
92 -50 -6 0 -50 -7 -99 -16 -49 -9 -127 -16 -174 -15 -111 0 -200 -14 -275
-45 -33 -14 -67 -28 -75 -31 -32 -13 53 64 107 97 132 80 290 102 424 60z
m-1104 -16 c-3 -3 -12 -4 -19 -1 -8 3 -5 6 6 6 11 1 17 -2 13 -5z m321 -26
c33 -35 74 -116 50 -101 -68 43 -108 79 -108 98 0 44 16 45 58 3z m-358 -28
c6 -11 8 -20 6 -20 -3 0 -10 9 -16 20 -6 11 -8 20 -6 20 3 0 10 -9 16 -20z"/>
<path d="M3153 5742 c-6 -4 22 -7 62 -7 82 0 111 -14 153 -75 27 -40 29 -27 2
17 -27 44 -87 73 -152 73 -29 0 -58 -4 -65 -8z"/>
<path d="M3099 5713 c-13 -17 -13 -17 6 -3 11 8 22 16 24 17 2 2 0 3 -6 3 -6
0 -17 -8 -24 -17z"/>
<path d="M3044 5661 c-15 -23 -24 -44 -20 -48 3 -3 6 -1 6 5 0 6 12 25 26 42
15 17 24 33 21 36 -3 3 -18 -13 -33 -35z"/>
<path d="M3011 5571 c-1 -27 2 -32 11 -23 8 8 8 17 0 34 -10 22 -11 21 -11
-11z"/>
<path d="M7055 6236 c-127 -40 -220 -138 -232 -247 -4 -38 -12 -59 -27 -71
-34 -28 -46 -22 -46 22 l0 40 -48 0 c-56 0 -155 -24 -185 -45 -12 -8 -25 -15
-28 -15 -4 0 -20 24 -37 53 -65 116 -191 198 -314 205 l-67 4 -3 -93 c-2 -78
-6 -93 -18 -90 -8 2 -49 4 -90 3 -89 0 -155 -22 -230 -77 -64 -47 -80 -73 -54
-92 11 -7 43 -37 72 -65 l53 -52 -43 -16 c-70 -25 -102 -46 -154 -103 -51 -56
-97 -132 -108 -181 -7 -29 -7 -29 31 -23 21 4 61 7 88 7 l50 0 23 49 c27 59
69 104 126 134 33 17 58 22 126 22 75 0 92 -4 145 -30 l60 -30 -83 -7 c-94 -8
-164 -35 -229 -90 -33 -28 -39 -37 -27 -42 9 -3 342 -6 740 -6 l723 0 46 64
c95 134 167 334 181 501 l7 83 -37 55 c-42 63 -106 110 -180 132 -60 18 -176
18 -231 1z m172 -137 c51 -19 91 -68 104 -126 9 -37 9 -57 2 -64 -7 -7 -13 -2
-17 17 -10 38 -52 89 -94 115 -29 17 -48 20 -95 17 -49 -4 -63 -9 -90 -36 -26
-27 -32 -42 -37 -94 -5 -50 -3 -66 9 -76 13 -10 11 -10 -10 -1 -29 12 -49 46
-49 85 0 30 25 92 48 118 43 48 160 71 229 45z m-963 -110 c64 -57 73 -80 67
-164 -5 -59 -9 -70 -26 -74 -17 -3 -17 -1 -6 12 11 14 8 22 -15 52 -15 20 -35
40 -44 45 -10 5 -20 24 -23 42 -16 90 -19 128 -10 128 6 0 31 -19 57 -41z
m-230 -149 c34 -13 68 -35 90 -60 40 -44 50 -76 13 -42 -28 26 -39 28 -30 5 5
-14 2 -15 -28 -8 -19 4 -55 10 -80 14 -36 5 -57 16 -93 49 -25 23 -46 44 -46
47 0 2 10 6 23 8 52 10 100 6 151 -13z m601 -52 c-19 -29 -35 -58 -35 -65 0
-7 -9 -27 -20 -45 l-20 -33 0 28 c0 22 -4 27 -24 27 -20 0 -23 4 -19 23 8 32
52 77 98 98 22 10 43 19 48 19 4 0 -8 -24 -28 -52z m281 -19 c35 -37 81 -59
126 -59 l32 0 -21 -22 c-22 -21 -23 -21 -81 -5 -55 15 -94 14 -117 -5 -5 -4
-20 -16 -33 -26 -15 -11 -24 -28 -24 -49 -1 -18 -5 -30 -11 -26 -5 3 -8 0 -5
-8 3 -8 13 -16 24 -18 10 -2 24 -11 30 -19 10 -13 16 -14 35 -5 46 22 60 23
66 6 17 -43 -96 -72 -145 -37 -12 8 -34 38 -48 66 -24 47 -25 55 -14 92 16 55
53 102 98 126 49 26 54 25 88 -11z"/>
<path d="M6805 5670 c-10 -11 -14 -20 -9 -20 5 0 15 9 22 20 7 11 11 20 9 20
-2 0 -12 -9 -22 -20z"/>
<path d="M6775 5629 c-4 -6 -5 -12 -2 -15 2 -3 7 2 10 11 7 17 1 20 -8 4z"/>
<path d="M6761 5584 c0 -11 3 -14 6 -6 3 7 2 16 -1 19 -3 4 -6 -2 -5 -13z"/>
<path d="M5755 6188 c-4 -9 -2 -26 5 -37 19 -36 90 -23 90 16 0 9 -11 13 -36
11 -22 -1 -39 3 -44 12 -8 12 -10 12 -15 -2z"/>
<path d="M4380 6173 c0 -22 24 -53 40 -53 11 0 40 29 40 41 0 5 -13 9 -28 9
-15 0 -33 5 -40 12 -9 9 -12 7 -12 -9z"/>
<path d="M4913 5848 c-20 -26 -24 -42 -5 -21 11 12 23 19 27 15 5 -4 5 -1 1 6
-4 6 -9 12 -10 12 -2 0 -8 -6 -13 -12z"/>
<path d="M5200 5824 c-11 -12 -10 -18 5 -32 18 -16 18 -16 6 1 -11 14 -11 20
-1 32 7 8 10 15 7 15 -2 0 -10 -7 -17 -16z"/>
<path d="M5093 5760 c-44 -26 -53 -48 -53 -128 0 -55 4 -75 21 -96 33 -41 56
-50 85 -31 23 15 24 20 24 130 0 90 -3 117 -16 129 -20 20 -22 20 -61 -4z"/>
<path d="M5226 5757 c3 -10 9 -15 12 -12 3 3 0 11 -7 18 -10 9 -11 8 -5 -6z"/>
<path d="M8056 5727 c3 -10 9 -15 12 -12 3 3 0 11 -7 18 -10 9 -11 8 -5 -6z"/>
<path d="M7950 5700 c0 -44 -27 -206 -46 -275 -9 -33 -18 -73 -19 -90 -3 -38
-19 -98 -56 -205 -40 -116 -36 -107 -114 -265 -59 -118 -80 -150 -135 -205
-168 -169 -450 -310 -710 -356 -174 -31 -418 -20 -535 23 -99 37 -172 68 -195
84 -14 9 -50 30 -80 46 -30 17 -84 46 -120 66 -96 53 -168 70 -264 65 -84 -5
-135 -24 -203 -76 -71 -54 -21 38 59 109 79 71 161 98 292 99 98 0 227 -31
336 -82 258 -119 353 -148 516 -155 124 -6 189 3 269 34 53 21 125 54 125 57
0 2 -33 -3 -72 -11 -99 -20 -287 -12 -393 16 -93 25 -154 48 -285 109 -285
133 -328 146 -470 145 -90 0 -116 -4 -180 -28 -41 -15 -97 -42 -125 -60 -61
-39 -146 -128 -173 -181 -33 -64 -46 -179 -28 -244 3 -14 8 -43 10 -66 5 -55
40 -121 75 -138 16 -9 31 -12 35 -9 3 4 20 -7 38 -23 l31 -29 -30 40 c-42 55
-56 103 -48 168 20 161 164 235 327 170 52 -21 122 -101 138 -158 27 -96 -9
-211 -82 -267 -46 -35 -125 -51 -215 -46 -63 4 -88 12 -159 48 -130 66 -188
146 -209 285 -4 28 -11 53 -16 56 -5 3 0 47 12 100 11 52 22 102 24 112 2 9 6
21 9 26 4 5 -3 7 -14 4 -11 -3 -20 -9 -20 -14 0 -4 -23 -30 -52 -56 -29 -26
-63 -58 -75 -70 -97 -94 -342 -178 -483 -167 -227 18 -303 46 -533 192 -141
89 -198 112 -292 119 -90 7 -158 -20 -214 -83 -52 -59 -68 -118 -52 -190 7
-30 17 -54 22 -54 5 0 9 -7 9 -15 0 -8 7 -15 15 -15 8 0 15 -7 15 -15 0 -10
10 -15 34 -15 23 0 36 -6 40 -17 5 -11 10 -14 14 -7 4 6 25 14 47 18 21 4 45
15 51 24 11 14 16 15 33 5 18 -11 22 -8 41 32 22 45 24 76 5 82 -6 2 -16 -10
-22 -27 -22 -59 -111 -71 -169 -22 -46 39 -49 126 -6 165 109 98 272 15 289
-147 7 -70 0 -98 -39 -141 -98 -113 -278 -105 -382 17 -84 97 -86 250 -7 368
16 25 27 48 24 54 -4 5 -1 6 6 1 8 -4 23 3 39 18 44 42 133 77 221 87 144 16
256 -15 472 -132 208 -112 365 -157 508 -144 127 12 148 16 193 36 24 11 39
20 33 20 -5 1 12 8 39 16 68 21 54 25 -29 7 -109 -23 -287 -13 -395 22 -80 26
-204 86 -289 139 -147 93 -303 146 -430 146 -269 0 -471 -167 -518 -427 -21
-119 -22 -121 -33 -103 -16 25 -11 170 8 240 10 36 29 85 42 110 13 25 23 48
22 53 -1 4 3 7 10 7 6 0 9 2 6 5 -2 3 -31 -5 -64 -16 -78 -28 -276 -38 -378
-18 -39 7 -78 12 -86 11 -8 -2 -25 -3 -37 -3 -13 1 -23 -4 -23 -11 0 -6 -7
-19 -15 -28 -25 -28 -7 -47 63 -69 93 -28 193 -34 272 -17 36 8 67 12 69 10 2
-2 -4 -30 -13 -62 -9 -33 -14 -66 -11 -74 17 -43 -82 -48 -225 -12 -92 23
-236 95 -296 148 -48 42 -154 188 -217 298 -29 51 -147 357 -147 382 0 8 -4
18 -10 21 -5 3 -10 16 -10 28 0 18 2 19 11 7 8 -11 9 -9 3 10 -3 14 -13 29
-20 33 -8 4 -14 13 -14 20 0 8 4 6 11 -3 9 -12 10 -11 4 5 -3 11 -9 32 -12 46
-4 21 -10 26 -27 22 -12 -3 -17 -1 -10 4 6 4 13 15 16 23 4 12 -2 16 -23 18
-16 1 -29 -3 -29 -9 0 -6 7 -9 15 -5 8 3 15 2 15 -3 0 -8 -41 -23 -47 -18 -1
2 0 13 4 25 4 16 13 22 35 22 29 0 29 0 22 48 -9 62 -27 103 -19 46 3 -29 0
-45 -9 -53 -10 -9 -15 -8 -19 3 -4 9 -15 12 -34 9 -21 -3 -24 -2 -13 6 16 11
12 13 -37 24 -29 6 -31 -18 -3 -35 23 -15 27 -30 5 -22 -11 5 -14 1 -12 -15 4
-26 17 -40 17 -18 0 9 4 17 9 17 5 0 7 -9 4 -20 -3 -11 -8 -20 -12 -20 -4 0
-8 -10 -8 -22 -2 -16 0 -19 6 -9 7 10 10 10 16 1 4 -7 2 -15 -4 -19 -14 -9 3
-96 48 -248 183 -612 647 -1201 1242 -1579 500 -316 1049 -474 1652 -474 170
0 390 18 551 46 200 34 508 131 726 228 508 226 963 623 1294 1126 108 164
131 206 209 390 91 216 198 620 157 595 -5 -3 -10 1 -10 9 0 9 6 13 14 10 10
-4 15 9 20 47 4 29 3 56 -2 61 -5 5 -8 -4 -7 -22 1 -16 -2 -30 -7 -30 -4 0 -8
4 -8 9 0 17 -42 24 -51 10 -7 -12 -9 -12 -9 -1 0 8 9 16 19 19 27 7 34 31 12
43 -16 8 -18 7 -14 -10 4 -14 0 -20 -10 -20 -9 0 -20 -7 -24 -15 -5 -8 -13
-11 -21 -6 -18 11 1 58 25 64 15 4 15 6 -5 12 -17 6 -22 13 -19 26 3 11 1 19
-4 19 -5 0 -9 -14 -9 -30z m36 -136 c-4 -11 -2 -14 6 -11 48 19 51 20 44 9 -4
-7 -14 -12 -21 -12 -10 0 -12 -6 -8 -17 6 -17 6 -17 -10 -1 -9 9 -22 18 -29
20 -13 5 -2 28 14 28 5 0 7 -7 4 -16z m-5816 -4 c0 -5 -2 -10 -4 -10 -3 0 -8
5 -11 10 -3 6 -1 10 4 10 6 0 11 -4 11 -10z m5897 -12 c-3 -8 -6 -5 -6 6 -1
11 2 17 5 13 3 -3 4 -12 1 -19z m-67 -42 c0 -3 -4 -8 -10 -11 -5 -3 -10 -1
-10 4 0 6 5 11 10 11 6 0 10 -2 10 -4z m-5730 -72 c0 -8 -5 -12 -10 -9 -6 4
-8 11 -5 16 9 14 15 11 15 -7z m5683 -44 c-3 -11 -7 -20 -9 -20 -2 0 -4 9 -4
20 0 11 4 20 9 20 5 0 7 -9 4 -20z m-5741 -8 c-7 -2 -10 -8 -6 -13 3 -5 0 -9
-5 -9 -6 0 -11 9 -11 20 0 14 5 18 17 13 11 -4 13 -8 5 -11z m85 -14 c-3 -8
-6 -5 -6 6 -1 11 2 17 5 13 3 -3 4 -12 1 -19z m5698 -58 c-3 -5 -12 -10 -18
-10 -7 0 -6 4 3 10 19 12 23 12 15 0z"/>
<path d="M2175 5710 c3 -5 8 -10 11 -10 2 0 4 5 4 10 0 6 -5 10 -11 10 -5 0
-7 -4 -4 -10z"/>
<path d="M5350 5686 c0 -36 -25 -93 -50 -112 -24 -20 -43 3 -37 46 3 19 1 46
-3 60 -6 19 -8 10 -9 -35 -1 -77 -16 -127 -46 -164 -14 -16 -25 -33 -25 -38 0
-12 33 -43 46 -43 14 0 90 101 109 146 17 40 33 174 21 174 -3 0 -6 -15 -6
-34z"/>
<path d="M8092 5690 c0 -14 2 -19 5 -12 2 6 2 18 0 25 -3 6 -5 1 -5 -13z"/>
<path d="M2152 5692 c2 -8 7 -12 12 -10 10 4 35 -42 35 -67 l0 -20 -11 20 c-7
11 -18 26 -26 34 -12 12 -15 12 -23 0 -6 -10 -3 -15 11 -17 21 -3 28 -22 9
-22 -5 0 -7 -5 -4 -11 4 -6 9 -8 12 -5 3 3 23 -4 44 -14 44 -23 49 -24 49 -9
0 5 -4 7 -10 4 -5 -3 -10 -1 -10 4 0 6 -7 11 -15 11 -8 0 -15 4 -15 9 0 14 28
21 33 8 2 -7 5 -5 9 4 4 10 -1 15 -15 16 -23 2 -39 22 -32 41 4 10 -7 14 -31
11 -4 0 -11 5 -16 13 -8 11 -9 11 -6 0z"/>
<path d="M2264 5692 c4 -6 2 -20 -3 -30 -8 -14 -6 -19 5 -19 17 0 19 43 2 53
-7 4 -8 3 -4 -4z"/>
<path d="M8031 5684 c0 -11 3 -14 6 -6 3 7 2 16 -1 19 -3 4 -6 -2 -5 -13z"/>
<path d="M2220 5660 c0 -5 5 -10 10 -10 6 0 10 5 10 10 0 6 -4 10 -10 10 -5 0
-10 -4 -10 -10z"/>
<path d="M7970 5634 c0 -8 5 -12 10 -9 6 3 10 10 10 16 0 5 -4 9 -10 9 -5 0
-10 -7 -10 -16z"/>
<path d="M2595 5229 c-4 -6 -5 -12 -2 -15 2 -3 7 2 10 11 7 17 1 20 -8 4z"/>
<path d="M4918 5223 c6 -2 18 -2 25 0 6 3 1 5 -13 5 -14 0 -19 -2 -12 -5z"/>
<path d="M6488 5223 c12 -2 32 -2 45 0 12 2 2 4 -23 4 -25 0 -35 -2 -22 -4z"/>
<path d="M6608 5223 c12 -2 30 -2 40 0 9 3 -1 5 -23 4 -22 0 -30 -2 -17 -4z"/>
<path d="M6688 5223 c6 -2 18 -2 25 0 6 3 1 5 -13 5 -14 0 -19 -2 -12 -5z"/>
<path d="M6738 5223 c6 -2 18 -2 25 0 6 3 1 5 -13 5 -14 0 -19 -2 -12 -5z"/>
<path d="M6802 5193 c9 -2 19 -12 21 -21 3 -12 5 -10 6 6 1 17 -4 22 -21 21
-16 -1 -18 -3 -6 -6z"/>
<path d="M2787 4759 c7 -7 15 -10 18 -7 3 3 -2 9 -12 12 -14 6 -15 5 -6 -5z"/>
<path d="M2847 4721 c4 -14 14 -19 41 -19 21 0 30 3 22 6 -8 2 -27 11 -41 18
-25 12 -27 12 -22 -5z"/>
<path d="M5596 4249 c-72 -56 -76 -168 -7 -203 76 -40 191 20 191 98 0 44 -21
89 -52 110 -33 23 -100 20 -132 -5z"/>
<path d="M2245 2777 c-132 -44 -202 -130 -213 -263 -9 -115 44 -212 149 -269
74 -40 179 -46 260 -16 71 27 149 105 149 149 0 16 3 57 6 91 l7 61 -142 0
-141 0 0 -45 0 -45 70 0 c80 0 89 -12 42 -59 -33 -34 -88 -46 -141 -31 -54 14
-87 43 -106 95 -53 138 99 257 231 182 l40 -24 47 42 47 41 -27 27 c-63 60
-197 90 -278 64z"/>
<path d="M4297 2780 c-88 -22 -154 -76 -198 -160 -34 -66 -34 -186 1 -253 59
-116 190 -179 322 -155 140 26 229 130 236 276 4 66 1 79 -28 138 -33 67 -79
111 -148 139 -43 19 -138 26 -185 15z m131 -144 c83 -43 110 -151 58 -231 -24
-37 -99 -69 -143 -62 -51 9 -99 50 -118 101 -25 65 -14 110 40 163 38 38 47
43 89 43 26 0 59 -6 74 -14z"/>
<path d="M6871 2775 c-85 -24 -140 -70 -181 -150 -29 -57 -35 -78 -34 -129 2
-164 130 -286 299 -286 63 0 106 14 162 52 68 46 70 60 17 101 l-45 35 -42
-24 c-89 -51 -191 -23 -228 62 -36 79 1 171 81 204 41 17 115 7 152 -20 l30
-22 41 38 c23 22 44 40 46 42 12 6 -57 63 -98 81 -66 28 -136 34 -200 16z"/>
<path d="M5479 2769 c-6 -3 -8 -114 -7 -275 l3 -269 208 -3 207 -2 0 65 0 65
-140 0 -140 0 0 40 0 40 93 1 c138 1 142 4 142 69 l0 55 -117 3 -118 3 0 44 0
44 138 3 137 3 0 60 0 60 -198 0 c-109 0 -203 -3 -208 -6z"/>
<path d="M6023 2763 c-3 -7 15 -38 39 -70 25 -32 66 -88 92 -125 l47 -67 -95
-126 c-53 -70 -96 -133 -96 -141 0 -12 15 -14 77 -12 l78 3 48 70 c26 38 53
78 61 89 12 19 17 13 75 -72 l62 -93 77 3 c64 2 77 6 76 19 -1 9 -45 70 -98
137 l-97 120 91 123 c49 68 90 132 90 141 0 15 -9 16 -72 11 -40 -3 -78 -10
-85 -15 -7 -6 -32 -41 -55 -79 -23 -38 -47 -68 -52 -66 -5 2 -27 32 -48 68
-22 35 -45 69 -51 76 -17 16 -158 22 -164 6z"/>
<path d="M7329 2764 c-5 -7 -8 -121 -7 -275 l3 -264 205 0 205 0 0 60 0 60
-138 3 -138 3 3 42 3 42 115 5 114 5 1 55 0 55 -118 3 -118 3 3 42 3 42 133 3
133 3 -3 62 -3 62 -193 0 c-131 0 -197 -4 -203 -11z"/>
<path d="M2905 2738 c-97 -217 -206 -475 -208 -492 -2 -19 4 -21 67 -24 77 -3
86 2 101 56 l11 37 119 3 120 2 22 -50 22 -50 75 0 c91 0 91 1 41 110 -19 41
-70 156 -113 255 l-78 180 -82 3 -82 3 -15 -33z m164 -290 c1 -5 -30 -8 -69
-8 -38 0 -70 3 -70 8 0 4 14 43 32 86 l33 79 37 -79 c20 -43 37 -82 37 -86z"/>
<path d="M3426 2754 c-9 -24 -7 -507 3 -522 5 -9 27 -12 72 -10 l64 3 5 143 5
144 75 -94 c41 -51 92 -117 113 -146 l39 -53 66 3 67 3 0 270 0 270 -70 0 -70
0 -5 -149 -5 -149 -70 89 c-39 49 -93 117 -119 152 l-49 62 -57 0 c-44 0 -59
-4 -64 -16z"/>
<path d="M7885 2758 c-3 -7 -4 -130 -3 -273 l3 -260 190 0 190 0 5 52 c3 28 4
56 2 62 -2 7 -47 11 -123 11 l-119 0 -2 208 -3 207 -68 3 c-48 2 -69 -1 -72
-10z"/>
<path d="M5057 2608 c-10 -8 -17 -31 -19 -58 l-3 -45 -53 -3 c-45 -3 -55 -7
-64 -28 -18 -39 8 -59 72 -55 l51 3 -6 -35 c-12 -62 30 -101 75 -70 19 13 21
22 15 59 l-6 44 48 0 c53 0 73 12 73 45 0 33 -20 45 -72 45 l-48 0 0 49 c0 35
-4 51 -16 55 -22 8 -28 8 -47 -6z"/>
<path d="M3690 1804 c-49 -21 -70 -42 -96 -99 -69 -146 28 -285 196 -285 55 0
124 30 140 60 11 20 9 25 -16 45 -29 23 -29 23 -56 4 -58 -42 -121 -31 -167
27 -38 48 -24 130 29 171 25 20 104 16 134 -8 l26 -20 30 21 c35 25 36 31 13
52 -55 48 -162 63 -233 32z"/>
<path d="M4243 1808 c-10 -12 -63 -124 -63 -132 0 -3 -15 -37 -34 -78 -82
-176 -83 -180 -19 -176 40 3 50 7 61 30 15 32 60 41 142 30 47 -6 55 -10 60
-32 5 -22 12 -25 58 -28 29 -2 52 1 52 6 0 6 -19 50 -41 99 -23 48 -61 133
-84 188 l-42 100 -40 3 c-24 2 -44 -2 -50 -10z m72 -166 c9 -20 18 -46 22 -59
5 -23 4 -24 -48 -21 -61 3 -63 8 -28 86 21 49 32 48 54 -6z"/>
<path d="M4666 1808 c-3 -7 -7 -92 -10 -189 -6 -193 -5 -199 51 -199 40 0 42
8 46 139 l2 94 80 -104 c44 -56 83 -107 86 -112 4 -5 26 -10 50 -10 l44 -2 3
198 2 197 -29 0 c-60 0 -61 -2 -61 -121 0 -60 -4 -109 -8 -109 -5 0 -42 46
-83 101 -41 56 -80 108 -87 115 -17 17 -81 18 -86 2z"/>
<path d="M5295 1797 c-21 -12 -53 -41 -69 -65 -25 -36 -30 -51 -30 -105 0 -76
29 -134 86 -174 74 -51 200 -40 259 23 l23 25 -29 24 c-26 20 -32 21 -46 9
-76 -68 -199 -11 -199 93 0 38 5 50 34 79 44 44 99 47 146 7 l32 -26 30 32
c25 27 28 34 17 47 -46 56 -181 72 -254 31z"/>
<path d="M5727 1814 c-4 -4 -7 -64 -7 -133 0 -155 15 -195 82 -235 93 -54 232
-24 273 59 16 34 19 62 20 175 l0 135 -45 0 -45 0 -5 -125 c-6 -132 -11 -155
-41 -170 -23 -13 -75 -13 -99 0 -35 19 -45 52 -50 175 l-5 120 -35 3 c-20 2
-39 0 -43 -4z"/>
<path d="M6282 1808 c-8 -8 -12 -64 -12 -188 0 -184 4 -200 45 -200 44 0 50
14 55 125 l5 106 94 -116 93 -116 42 3 41 3 -1 195 c-1 194 -1 195 -24 198
-12 2 -33 1 -46 -2 -23 -6 -24 -9 -18 -79 3 -39 2 -90 -3 -111 l-9 -40 -88
117 c-85 112 -91 117 -125 117 -21 0 -42 -5 -49 -12z"/>
<path d="M2832 1724 c-26 -18 -28 -46 -6 -68 13 -14 49 -16 233 -16 229 0 241
2 241 46 0 51 -15 54 -238 54 -172 0 -211 -3 -230 -16z"/>
<path d="M6940 1720 c-23 -23 -24 -33 -10 -61 10 -18 23 -19 234 -19 236 0
237 0 249 48 11 46 -18 52 -245 52 -195 0 -209 -1 -228 -20z"/>
</g>
</svg>
